<?xml version="1.0" encoding="utf-8"?>
<!-- Generator: Adobe Illustrator 26.0.2, SVG Export Plug-In . SVG Version: 6.00 Build 0)  -->
<svg version="1.1" id="Layer_1" xmlns:svgjs="http://svgjs.dev/svgjs"
	 xmlns="http://www.w3.org/2000/svg" xmlns:xlink="http://www.w3.org/1999/xlink" x="0px" y="0px" viewBox="0 0 1986.6 167.9"
	 style="enable-background:new 0 0 1986.6 167.9;" xml:space="preserve">
<style type="text/css">
	.st0{fill:#16AFF1;}
	.st1{display:none;fill:none;}
</style>
<g transform="matrix(1,0,0,1,-1.2121209506739206,0.950193060851646)">
	<g id="tight-bounds" transform="matrix(1,0,0,1,0.24000005176662853,-0.1888931120728614)">
		<g>
			<g>
				<g>
					<g>
						<g transform="matrix(1,0,0,1,0,0)">
							<g id="text-0">
								<path d="M44.6,101.1H31.5v64.2H1V1.1H51c11.2,0,20.8,1.2,28.8,3.5c8,2.3,14.5,5.5,19.6,9.7c5.1,4.2,8.9,9.1,11.3,14.9
									c2.4,5.8,3.6,12.2,3.6,19.1l0,0c0,5.5-0.8,10.7-2.5,15.7c-1.6,4.9-4,9.4-7,13.4c-3.1,4-6.8,7.5-11.4,10.5
									c-4.5,3-9.6,5.5-15.4,7.3l0,0c3.9,2.2,7.2,5.4,10,9.5l0,0l41.1,60.7h-27.5c-2.6,0-4.9-0.5-6.8-1.6c-1.8-1.1-3.4-2.6-4.7-4.5
									l0,0l-34.5-52.6c-1.3-2-2.7-3.4-4.3-4.2C49.9,101.5,47.6,101.1,44.6,101.1L44.6,101.1z M31.5,24.7v54.5h19.1
									c5.8,0,10.8-0.7,15-2.2c4.3-1.4,7.8-3.4,10.6-6c2.8-2.5,4.8-5.6,6.2-9c1.4-3.5,2-7.3,2-11.5l0,0c0-8.3-2.7-14.7-8.2-19.2
									c-5.5-4.5-13.9-6.7-25.2-6.7l0,0H31.5z M148.7,1.1h103.6v24.3h-72.8v45.5h57.4v23.5h-57.4v46.4h72.8v24.4H148.7V1.1z
									 M294.8,1.1L294.8,1.1c1.4,0,2.5,0.1,3.4,0.2c0.9,0.1,1.7,0.3,2.4,0.7c0.7,0.3,1.4,0.8,2.1,1.5c0.7,0.6,1.4,1.5,2.3,2.5l0,0
									l86.2,109.9c-0.3-2.7-0.5-5.3-0.6-7.8c-0.1-2.5-0.2-4.9-0.2-7.1l0,0V1.1h26.9v164.3h-15.8c-2.4,0-4.4-0.4-6-1.1
									c-1.6-0.8-3.1-2.1-4.6-4.1l0,0L305.1,50.7c0.2,2.4,0.4,4.8,0.5,7.2c0.1,2.4,0.2,4.6,0.2,6.5l0,0v100.9h-26.9V1.1H294.8z
									 M436.7,1.1h129.6v25.1h-49.4v139.2h-30.6V26.1h-49.6V1.1z"/>
								<path class="st0" d="M582.9,1.1h103.6v24.3h-72.8v45.5H671v23.5h-57.3v46.4h72.8v24.4H582.9V1.1z M763.1,165.3L696.8,1.1
									h24.7c2.6,0,4.8,0.6,6.5,1.9c1.7,1.3,2.9,3,3.8,5l0,0l38.6,100.2c1.3,3.3,2.5,6.9,3.7,10.8c1.2,3.9,2.3,8,3.4,12.3l0,0
									c1.7-8.7,3.9-16.4,6.5-23.1l0,0L822.3,8c0.7-1.7,1.9-3.3,3.6-4.8c1.7-1.4,3.9-2.1,6.5-2.1l0,0h24.7l-66.3,164.3H763.1z
									 M874.2,1.1h103.6v24.3H905v45.5h57.3v23.5H905v46.4h72.8v24.4H874.2V1.1z M1049,101.1h-13.1v64.2h-30.5V1.1h50.1
									c11.2,0,20.8,1.2,28.8,3.5c8,2.3,14.6,5.5,19.7,9.7c5.1,4.2,8.8,9.1,11.2,14.9c2.4,5.8,3.6,12.2,3.6,19.1l0,0
									c0,5.5-0.8,10.7-2.5,15.7c-1.6,4.9-4,9.4-7,13.4c-3.1,4-6.8,7.5-11.4,10.5c-4.5,3-9.6,5.5-15.4,7.3l0,0
									c3.9,2.2,7.2,5.4,10,9.5l0,0l41.1,60.7h-27.5c-2.6,0-4.9-0.5-6.7-1.6c-1.9-1.1-3.5-2.6-4.7-4.5l0,0l-34.5-52.6
									c-1.3-2-2.7-3.4-4.3-4.2C1054.3,101.5,1052,101.1,1049,101.1L1049,101.1z M1035.9,24.7v54.5h19.1c5.8,0,10.8-0.7,15.1-2.2
									c4.3-1.4,7.8-3.4,10.5-6c2.8-2.5,4.8-5.6,6.2-9c1.4-3.5,2-7.3,2-11.5l0,0c0-8.3-2.7-14.7-8.2-19.2
									c-5.5-4.5-13.9-6.7-25.2-6.7l0,0H1035.9z M1285.9,1.1l-59.8,100.4v63.8h-30.6v-63.8L1135.7,1.1h26.9c2.7,0,4.8,0.6,6.3,1.9
									c1.5,1.3,2.8,2.9,3.9,4.9l0,0l30.1,54.8c1.7,3.3,3.2,6.4,4.5,9.3c1.3,2.9,2.4,5.8,3.5,8.6l0,0c1-2.9,2.1-5.8,3.4-8.7
									c1.2-2.9,2.7-6,4.5-9.2l0,0l29.9-54.8c0.8-1.7,2.1-3.2,3.8-4.7c1.6-1.4,3.8-2.1,6.4-2.1l0,0H1285.9z M1287.9,1.1h129.6v25.1
									h-49.4v139.2h-30.5V26.1h-49.7V1.1z M1575.6,1.1v164.3h-30.8V93.5h-77v71.8H1437V1.1h30.8v70.7h77V1.1H1575.6z M1643.1,1.1
									v164.3h-30.7V1.1H1643.1z M1696.1,1.1L1696.1,1.1c1.4,0,2.5,0.1,3.4,0.2c0.9,0.1,1.7,0.3,2.5,0.7c0.7,0.3,1.4,0.8,2.1,1.5
									c0.7,0.6,1.5,1.5,2.3,2.5l0,0l86.2,109.9c-0.3-2.7-0.5-5.3-0.6-7.8c-0.1-2.5-0.2-4.9-0.2-7.1l0,0V1.1h26.9v164.3h-15.8
									c-2.4,0-4.4-0.4-6-1.1c-1.6-0.8-3.2-2.1-4.7-4.1l0,0l-85.9-109.4c0.2,2.4,0.4,4.8,0.5,7.2c0.1,2.4,0.2,4.6,0.2,6.5l0,0
									v100.9h-26.9V1.1H1696.1z M1927.2,142.8L1927.2,142.8c6.9,0,12.9-0.6,18-1.9c5.1-1.3,10-3,14.6-5.2l0,0v-29.9h-20.6
									c-2,0-3.5-0.5-4.6-1.6c-1.2-1.1-1.7-2.4-1.7-4l0,0V82.9h54.7v66.5c-4.2,3-8.5,5.7-13,7.9c-4.5,2.2-9.3,4-14.4,5.5
									c-5.1,1.4-10.6,2.5-16.4,3.2c-5.8,0.7-12.1,1.1-18.9,1.1l0,0c-12,0-23-2.1-33.1-6.3c-10.1-4.2-18.8-9.9-26.1-17.4
									c-7.3-7.4-13.1-16.3-17.2-26.6c-4.2-10.3-6.2-21.5-6.2-33.7l0,0c0-12.4,2-23.7,6-34c4-10.3,9.7-19.2,17.1-26.6
									c7.4-7.4,16.3-13.2,26.9-17.3c10.5-4.1,22.4-6.1,35.4-6.1l0,0c13.4,0,25,2,34.8,6c9.8,4,18.1,9.1,24.9,15.5l0,0l-8.9,13.9
									c-1.7,2.8-4,4.2-6.9,4.2l0,0c-1.8,0-3.7-0.6-5.6-1.8l0,0c-2.4-1.5-4.9-2.9-7.4-4.3c-2.5-1.5-5.4-2.7-8.5-3.8
									c-3.1-1.1-6.5-1.9-10.3-2.6c-3.8-0.7-8.2-1-13.2-1l0,0c-8.1,0-15.4,1.4-22,4.1c-6.5,2.7-12.1,6.6-16.8,11.7
									c-4.6,5.1-8.2,11.1-10.7,18.3c-2.5,7.1-3.7,15.1-3.7,23.9l0,0c0,9.5,1.3,17.9,4,25.3c2.7,7.4,6.4,13.6,11.1,18.7
									c4.8,5.1,10.5,8.9,17,11.6C1912.2,141.5,1919.4,142.8,1927.2,142.8z"/>
							</g>
						</g>
					</g>
				</g>
			</g>
		</g>
		<rect x="-0.5" y="-0.8" class="st1" width="1989.6" height="167.9"/>
	</g>
</g>
</svg>
